<mxfile host="app.diagrams.net" agent="Mozilla/5.0 (X11; Linux x86_64) AppleWebKit/537.36 (KHTML, like Gecko) Chrome/134.0.0.0 Safari/537.36" version="26.1.3">
  <diagram name="Page-1" id="c7_JPdmgr0O6n47EBYLc">
    <mxGraphModel dx="1639" dy="927" grid="1" gridSize="10" guides="1" tooltips="1" connect="1" arrows="1" fold="1" page="1" pageScale="1" pageWidth="1169" pageHeight="827" math="0" shadow="0">
      <root>
        <mxCell id="0" />
        <mxCell id="1" parent="0" />
        <mxCell id="GmYDYf6V0mL1RIksBjV9-6" value="USB-C" style="rounded=0;whiteSpace=wrap;html=1;" parent="1" vertex="1">
          <mxGeometry x="540" y="40" width="80" height="60" as="geometry" />
        </mxCell>
        <mxCell id="GmYDYf6V0mL1RIksBjV9-7" value="3-pos switch" style="rounded=0;whiteSpace=wrap;html=1;" parent="1" vertex="1">
          <mxGeometry x="240" y="40" width="80" height="60" as="geometry" />
        </mxCell>
        <mxCell id="GmYDYf6V0mL1RIksBjV9-8" value="MCU" style="rounded=0;whiteSpace=wrap;html=1;" parent="1" vertex="1">
          <mxGeometry x="480" y="600" width="200" height="160" as="geometry" />
        </mxCell>
        <mxCell id="GmYDYf6V0mL1RIksBjV9-9" value="Keypad" style="rounded=0;whiteSpace=wrap;html=1;" parent="1" vertex="1">
          <mxGeometry x="80" y="520" width="240" height="240" as="geometry" />
        </mxCell>
        <mxCell id="GmYDYf6V0mL1RIksBjV9-10" value="Motor Driver" style="rounded=0;whiteSpace=wrap;html=1;" parent="1" vertex="1">
          <mxGeometry x="900" y="400" width="160" height="120" as="geometry" />
        </mxCell>
        <mxCell id="GmYDYf6V0mL1RIksBjV9-11" value="LCD Connector" style="rounded=0;whiteSpace=wrap;html=1;" parent="1" vertex="1">
          <mxGeometry x="900" y="280" width="120" height="60" as="geometry" />
        </mxCell>
        <mxCell id="GmYDYf6V0mL1RIksBjV9-12" value="Magnetic Encoder" style="rounded=0;whiteSpace=wrap;html=1;" parent="1" vertex="1">
          <mxGeometry x="900" y="590" width="120" height="60" as="geometry" />
        </mxCell>
        <mxCell id="GmYDYf6V0mL1RIksBjV9-13" value="Ambient Light Sensor" style="rounded=0;whiteSpace=wrap;html=1;" parent="1" vertex="1">
          <mxGeometry x="900" y="190" width="120" height="60" as="geometry" />
        </mxCell>
        <mxCell id="GmYDYf6V0mL1RIksBjV9-14" value="Strain Sensor" style="rounded=0;whiteSpace=wrap;html=1;" parent="1" vertex="1">
          <mxGeometry x="900" y="700" width="120" height="60" as="geometry" />
        </mxCell>
        <mxCell id="GmYDYf6V0mL1RIksBjV9-15" value="3.3V Buck" style="rounded=0;whiteSpace=wrap;html=1;" parent="1" vertex="1">
          <mxGeometry x="520" y="190" width="120" height="60" as="geometry" />
        </mxCell>
        <mxCell id="GmYDYf6V0mL1RIksBjV9-16" value="BMS" style="rounded=0;whiteSpace=wrap;html=1;" parent="1" vertex="1">
          <mxGeometry x="200" y="200" width="120" height="80" as="geometry" />
        </mxCell>
        <mxCell id="GmYDYf6V0mL1RIksBjV9-17" value="Battery Connector" style="rounded=0;whiteSpace=wrap;html=1;" parent="1" vertex="1">
          <mxGeometry x="200" y="354" width="120" height="60" as="geometry" />
        </mxCell>
        <mxCell id="GmYDYf6V0mL1RIksBjV9-24" value="" style="endArrow=classic;html=1;rounded=0;entryX=0.5;entryY=0;entryDx=0;entryDy=0;startArrow=oval;startFill=1;exitX=0.5;exitY=1;exitDx=0;exitDy=0;" parent="1" source="GmYDYf6V0mL1RIksBjV9-6" target="GmYDYf6V0mL1RIksBjV9-16" edge="1">
          <mxGeometry width="50" height="50" relative="1" as="geometry">
            <mxPoint x="580" y="160" as="sourcePoint" />
            <mxPoint x="280" y="180" as="targetPoint" />
            <Array as="points">
              <mxPoint x="580" y="140" />
              <mxPoint x="260" y="140" />
            </Array>
          </mxGeometry>
        </mxCell>
        <mxCell id="2bLrS-VZrDyPFi-mQ5lX-6" value="5V" style="edgeLabel;html=1;align=center;verticalAlign=middle;resizable=0;points=[];" parent="GmYDYf6V0mL1RIksBjV9-24" vertex="1" connectable="0">
          <mxGeometry x="-0.505" y="-1" relative="1" as="geometry">
            <mxPoint x="64" y="-19" as="offset" />
          </mxGeometry>
        </mxCell>
        <mxCell id="GmYDYf6V0mL1RIksBjV9-26" value="" style="endArrow=classic;startArrow=classic;html=1;rounded=0;entryX=0.5;entryY=1;entryDx=0;entryDy=0;exitX=0.5;exitY=0;exitDx=0;exitDy=0;" parent="1" source="GmYDYf6V0mL1RIksBjV9-17" target="GmYDYf6V0mL1RIksBjV9-16" edge="1">
          <mxGeometry width="50" height="50" relative="1" as="geometry">
            <mxPoint x="420" y="390" as="sourcePoint" />
            <mxPoint x="510" y="360" as="targetPoint" />
          </mxGeometry>
        </mxCell>
        <mxCell id="GmYDYf6V0mL1RIksBjV9-27" value="" style="endArrow=classic;startArrow=classic;html=1;rounded=0;exitX=1;exitY=0.75;exitDx=0;exitDy=0;entryX=0;entryY=0.75;entryDx=0;entryDy=0;" parent="1" source="GmYDYf6V0mL1RIksBjV9-9" target="GmYDYf6V0mL1RIksBjV9-8" edge="1">
          <mxGeometry width="50" height="50" relative="1" as="geometry">
            <mxPoint x="520" y="720" as="sourcePoint" />
            <mxPoint x="570" y="670" as="targetPoint" />
            <Array as="points">
              <mxPoint x="400" y="700" />
              <mxPoint x="400" y="720" />
            </Array>
          </mxGeometry>
        </mxCell>
        <mxCell id="2bLrS-VZrDyPFi-mQ5lX-36" value="Data" style="edgeLabel;html=1;align=center;verticalAlign=middle;resizable=0;points=[];" parent="GmYDYf6V0mL1RIksBjV9-27" vertex="1" connectable="0">
          <mxGeometry x="0.0148" y="-1" relative="1" as="geometry">
            <mxPoint y="-1" as="offset" />
          </mxGeometry>
        </mxCell>
        <mxCell id="GmYDYf6V0mL1RIksBjV9-30" value="" style="endArrow=classic;html=1;rounded=0;entryX=1;entryY=0.75;entryDx=0;entryDy=0;exitX=0;exitY=0.75;exitDx=0;exitDy=0;" parent="1" source="GmYDYf6V0mL1RIksBjV9-14" target="GmYDYf6V0mL1RIksBjV9-8" edge="1">
          <mxGeometry width="50" height="50" relative="1" as="geometry">
            <mxPoint x="800" y="760" as="sourcePoint" />
            <mxPoint x="860" y="480" as="targetPoint" />
            <Array as="points">
              <mxPoint x="800" y="745" />
              <mxPoint x="800" y="720" />
            </Array>
          </mxGeometry>
        </mxCell>
        <mxCell id="2bLrS-VZrDyPFi-mQ5lX-35" value="Data" style="edgeLabel;html=1;align=center;verticalAlign=middle;resizable=0;points=[];" parent="GmYDYf6V0mL1RIksBjV9-30" vertex="1" connectable="0">
          <mxGeometry x="-0.0925" y="-1" relative="1" as="geometry">
            <mxPoint as="offset" />
          </mxGeometry>
        </mxCell>
        <mxCell id="GmYDYf6V0mL1RIksBjV9-31" value="" style="endArrow=classic;html=1;rounded=0;exitX=0;exitY=0.75;exitDx=0;exitDy=0;entryX=1;entryY=0.5;entryDx=0;entryDy=0;" parent="1" source="GmYDYf6V0mL1RIksBjV9-12" target="GmYDYf6V0mL1RIksBjV9-8" edge="1">
          <mxGeometry width="50" height="50" relative="1" as="geometry">
            <mxPoint x="710" y="550" as="sourcePoint" />
            <mxPoint x="800" y="680" as="targetPoint" />
            <Array as="points">
              <mxPoint x="800" y="635" />
              <mxPoint x="800" y="680" />
            </Array>
          </mxGeometry>
        </mxCell>
        <mxCell id="2bLrS-VZrDyPFi-mQ5lX-34" value="Data" style="edgeLabel;html=1;align=center;verticalAlign=middle;resizable=0;points=[];" parent="GmYDYf6V0mL1RIksBjV9-31" vertex="1" connectable="0">
          <mxGeometry x="-0.0906" relative="1" as="geometry">
            <mxPoint as="offset" />
          </mxGeometry>
        </mxCell>
        <mxCell id="GmYDYf6V0mL1RIksBjV9-32" value="" style="endArrow=classic;html=1;rounded=0;exitX=1;exitY=0.25;exitDx=0;exitDy=0;entryX=0;entryY=0.75;entryDx=0;entryDy=0;" parent="1" source="GmYDYf6V0mL1RIksBjV9-8" target="GmYDYf6V0mL1RIksBjV9-10" edge="1">
          <mxGeometry width="50" height="50" relative="1" as="geometry">
            <mxPoint x="750" y="490" as="sourcePoint" />
            <mxPoint x="800" y="440" as="targetPoint" />
            <Array as="points">
              <mxPoint x="760" y="640" />
              <mxPoint x="760" y="490" />
            </Array>
          </mxGeometry>
        </mxCell>
        <mxCell id="2bLrS-VZrDyPFi-mQ5lX-33" value="Data" style="edgeLabel;html=1;align=center;verticalAlign=middle;resizable=0;points=[];" parent="GmYDYf6V0mL1RIksBjV9-32" vertex="1" connectable="0">
          <mxGeometry x="-0.1288" relative="1" as="geometry">
            <mxPoint as="offset" />
          </mxGeometry>
        </mxCell>
        <mxCell id="GmYDYf6V0mL1RIksBjV9-33" value="" style="endArrow=classic;html=1;rounded=0;entryX=0;entryY=0.75;entryDx=0;entryDy=0;exitX=0.75;exitY=0;exitDx=0;exitDy=0;" parent="1" source="GmYDYf6V0mL1RIksBjV9-8" target="GmYDYf6V0mL1RIksBjV9-11" edge="1">
          <mxGeometry width="50" height="50" relative="1" as="geometry">
            <mxPoint x="600" y="560" as="sourcePoint" />
            <mxPoint x="800" y="440" as="targetPoint" />
            <Array as="points">
              <mxPoint x="630" y="560" />
              <mxPoint x="720" y="560" />
              <mxPoint x="720" y="325" />
            </Array>
          </mxGeometry>
        </mxCell>
        <mxCell id="2bLrS-VZrDyPFi-mQ5lX-32" value="Data" style="edgeLabel;html=1;align=center;verticalAlign=middle;resizable=0;points=[];" parent="GmYDYf6V0mL1RIksBjV9-33" vertex="1" connectable="0">
          <mxGeometry x="0.0624" relative="1" as="geometry">
            <mxPoint as="offset" />
          </mxGeometry>
        </mxCell>
        <mxCell id="GmYDYf6V0mL1RIksBjV9-34" value="" style="endArrow=classic;html=1;rounded=0;exitX=0;exitY=0.75;exitDx=0;exitDy=0;entryX=0.5;entryY=0;entryDx=0;entryDy=0;" parent="1" source="GmYDYf6V0mL1RIksBjV9-13" target="GmYDYf6V0mL1RIksBjV9-8" edge="1">
          <mxGeometry width="50" height="50" relative="1" as="geometry">
            <mxPoint x="710" y="420" as="sourcePoint" />
            <mxPoint x="600" y="580" as="targetPoint" />
            <Array as="points">
              <mxPoint x="680" y="235" />
              <mxPoint x="680" y="520" />
              <mxPoint x="580" y="520" />
            </Array>
          </mxGeometry>
        </mxCell>
        <mxCell id="2bLrS-VZrDyPFi-mQ5lX-31" value="Data" style="edgeLabel;html=1;align=center;verticalAlign=middle;resizable=0;points=[];" parent="GmYDYf6V0mL1RIksBjV9-34" vertex="1" connectable="0">
          <mxGeometry x="0.0088" y="-1" relative="1" as="geometry">
            <mxPoint as="offset" />
          </mxGeometry>
        </mxCell>
        <mxCell id="GmYDYf6V0mL1RIksBjV9-35" value="5V" style="rounded=0;whiteSpace=wrap;html=1;" parent="1" vertex="1">
          <mxGeometry x="520" y="400" width="120" height="60" as="geometry" />
        </mxCell>
        <mxCell id="GmYDYf6V0mL1RIksBjV9-37" value="" style="endArrow=classic;html=1;rounded=0;entryX=0;entryY=0.25;entryDx=0;entryDy=0;exitX=1;exitY=0.5;exitDx=0;exitDy=0;" parent="1" source="GmYDYf6V0mL1RIksBjV9-35" target="GmYDYf6V0mL1RIksBjV9-10" edge="1">
          <mxGeometry width="50" height="50" relative="1" as="geometry">
            <mxPoint x="610" y="450" as="sourcePoint" />
            <mxPoint x="660" y="400" as="targetPoint" />
          </mxGeometry>
        </mxCell>
        <mxCell id="2bLrS-VZrDyPFi-mQ5lX-16" value="5V" style="edgeLabel;html=1;align=center;verticalAlign=middle;resizable=0;points=[];" parent="GmYDYf6V0mL1RIksBjV9-37" vertex="1" connectable="0">
          <mxGeometry x="-0.0769" relative="1" as="geometry">
            <mxPoint y="1" as="offset" />
          </mxGeometry>
        </mxCell>
        <mxCell id="GmYDYf6V0mL1RIksBjV9-43" value="" style="endArrow=classic;html=1;rounded=0;entryX=0;entryY=0.5;entryDx=0;entryDy=0;exitX=1;exitY=0.5;exitDx=0;exitDy=0;" parent="1" source="GmYDYf6V0mL1RIksBjV9-15" target="GmYDYf6V0mL1RIksBjV9-13" edge="1">
          <mxGeometry width="50" height="50" relative="1" as="geometry">
            <mxPoint x="660" y="230" as="sourcePoint" />
            <mxPoint x="840" y="290" as="targetPoint" />
          </mxGeometry>
        </mxCell>
        <mxCell id="2bLrS-VZrDyPFi-mQ5lX-5" value="3V3" style="edgeLabel;html=1;align=center;verticalAlign=middle;resizable=0;points=[];" parent="GmYDYf6V0mL1RIksBjV9-43" vertex="1" connectable="0">
          <mxGeometry x="-0.3077" y="-3" relative="1" as="geometry">
            <mxPoint y="-3" as="offset" />
          </mxGeometry>
        </mxCell>
        <mxCell id="GmYDYf6V0mL1RIksBjV9-44" value="" style="endArrow=classic;html=1;rounded=0;entryX=0;entryY=0.25;entryDx=0;entryDy=0;startArrow=oval;startFill=1;" parent="1" target="GmYDYf6V0mL1RIksBjV9-14" edge="1">
          <mxGeometry width="50" height="50" relative="1" as="geometry">
            <mxPoint x="840" y="220" as="sourcePoint" />
            <mxPoint x="840" y="720" as="targetPoint" />
            <Array as="points">
              <mxPoint x="840" y="715" />
            </Array>
          </mxGeometry>
        </mxCell>
        <mxCell id="GmYDYf6V0mL1RIksBjV9-45" value="" style="endArrow=classic;html=1;rounded=0;entryX=0;entryY=0.25;entryDx=0;entryDy=0;startArrow=oval;startFill=1;" parent="1" target="GmYDYf6V0mL1RIksBjV9-11" edge="1">
          <mxGeometry width="50" height="50" relative="1" as="geometry">
            <mxPoint x="840" y="295" as="sourcePoint" />
            <mxPoint x="890" y="410" as="targetPoint" />
          </mxGeometry>
        </mxCell>
        <mxCell id="GmYDYf6V0mL1RIksBjV9-46" value="" style="endArrow=classic;html=1;rounded=0;entryX=0;entryY=0.25;entryDx=0;entryDy=0;startArrow=oval;startFill=1;" parent="1" target="GmYDYf6V0mL1RIksBjV9-12" edge="1">
          <mxGeometry width="50" height="50" relative="1" as="geometry">
            <mxPoint x="840" y="605" as="sourcePoint" />
            <mxPoint x="900" y="600" as="targetPoint" />
          </mxGeometry>
        </mxCell>
        <mxCell id="GmYDYf6V0mL1RIksBjV9-47" value="" style="endArrow=none;html=1;rounded=0;startArrow=none;startFill=0;endFill=1;entryX=0.5;entryY=1;entryDx=0;entryDy=0;" parent="1" target="GmYDYf6V0mL1RIksBjV9-15" edge="1">
          <mxGeometry width="50" height="50" relative="1" as="geometry">
            <mxPoint x="440" y="380" as="sourcePoint" />
            <mxPoint x="570" y="290" as="targetPoint" />
            <Array as="points">
              <mxPoint x="580" y="380" />
            </Array>
          </mxGeometry>
        </mxCell>
        <mxCell id="2bLrS-VZrDyPFi-mQ5lX-15" value="3V3" style="edgeLabel;html=1;align=center;verticalAlign=middle;resizable=0;points=[];" parent="GmYDYf6V0mL1RIksBjV9-47" vertex="1" connectable="0">
          <mxGeometry x="0.444" relative="1" as="geometry">
            <mxPoint y="1" as="offset" />
          </mxGeometry>
        </mxCell>
        <mxCell id="GmYDYf6V0mL1RIksBjV9-48" value="" style="endArrow=classic;html=1;rounded=0;entryX=1;entryY=0.5;entryDx=0;entryDy=0;startArrow=oval;startFill=1;" parent="1" target="GmYDYf6V0mL1RIksBjV9-9" edge="1">
          <mxGeometry width="50" height="50" relative="1" as="geometry">
            <mxPoint x="440" y="640" as="sourcePoint" />
            <mxPoint x="520" y="570" as="targetPoint" />
          </mxGeometry>
        </mxCell>
        <mxCell id="GmYDYf6V0mL1RIksBjV9-49" value="" style="endArrow=classic;startArrow=classic;html=1;rounded=0;entryX=0;entryY=0.5;entryDx=0;entryDy=0;exitX=0;exitY=0.5;exitDx=0;exitDy=0;" parent="1" source="GmYDYf6V0mL1RIksBjV9-8" target="GmYDYf6V0mL1RIksBjV9-6" edge="1">
          <mxGeometry width="50" height="50" relative="1" as="geometry">
            <mxPoint x="240" y="160" as="sourcePoint" />
            <mxPoint x="570" y="380" as="targetPoint" />
            <Array as="points">
              <mxPoint x="400" y="680" />
              <mxPoint x="400" y="70" />
            </Array>
          </mxGeometry>
        </mxCell>
        <mxCell id="2bLrS-VZrDyPFi-mQ5lX-14" value="Data" style="edgeLabel;html=1;align=center;verticalAlign=middle;resizable=0;points=[];" parent="GmYDYf6V0mL1RIksBjV9-49" vertex="1" connectable="0">
          <mxGeometry x="-0.1289" relative="1" as="geometry">
            <mxPoint y="1" as="offset" />
          </mxGeometry>
        </mxCell>
        <mxCell id="2bLrS-VZrDyPFi-mQ5lX-1" value="" style="endArrow=classic;html=1;rounded=0;entryX=0;entryY=0.25;entryDx=0;entryDy=0;startArrow=none;startFill=0;" parent="1" target="GmYDYf6V0mL1RIksBjV9-8" edge="1">
          <mxGeometry width="50" height="50" relative="1" as="geometry">
            <mxPoint x="440" y="380" as="sourcePoint" />
            <mxPoint x="440" y="680" as="targetPoint" />
            <Array as="points">
              <mxPoint x="440" y="640" />
            </Array>
          </mxGeometry>
        </mxCell>
        <mxCell id="2bLrS-VZrDyPFi-mQ5lX-4" value="" style="endArrow=classic;html=1;rounded=0;entryX=0.25;entryY=0;entryDx=0;entryDy=0;exitX=1;exitY=0.5;exitDx=0;exitDy=0;" parent="1" source="GmYDYf6V0mL1RIksBjV9-7" target="GmYDYf6V0mL1RIksBjV9-8" edge="1">
          <mxGeometry width="50" height="50" relative="1" as="geometry">
            <mxPoint x="250" y="120" as="sourcePoint" />
            <mxPoint x="550" y="560" as="targetPoint" />
            <Array as="points">
              <mxPoint x="360" y="70" />
              <mxPoint x="360" y="120" />
              <mxPoint x="360" y="560" />
              <mxPoint x="530" y="560" />
            </Array>
          </mxGeometry>
        </mxCell>
        <mxCell id="2bLrS-VZrDyPFi-mQ5lX-7" value="Mux" style="shape=trapezoid;perimeter=trapezoidPerimeter;whiteSpace=wrap;html=1;fixedSize=1;rotation=0;horizontal=1;direction=west;" parent="1" vertex="1">
          <mxGeometry x="440" y="330" width="80" height="20" as="geometry" />
        </mxCell>
        <mxCell id="2bLrS-VZrDyPFi-mQ5lX-10" value="" style="endArrow=classic;html=1;rounded=0;entryX=1;entryY=0.25;entryDx=0;entryDy=0;startArrow=oval;startFill=1;" parent="1" target="2bLrS-VZrDyPFi-mQ5lX-7" edge="1">
          <mxGeometry width="50" height="50" relative="1" as="geometry">
            <mxPoint x="360" y="343" as="sourcePoint" />
            <mxPoint x="570" y="350" as="targetPoint" />
          </mxGeometry>
        </mxCell>
        <mxCell id="2bLrS-VZrDyPFi-mQ5lX-11" value="" style="endArrow=classic;html=1;rounded=0;exitX=0.5;exitY=0;exitDx=0;exitDy=0;entryX=0;entryY=0.5;entryDx=0;entryDy=0;" parent="1" source="2bLrS-VZrDyPFi-mQ5lX-7" target="GmYDYf6V0mL1RIksBjV9-35" edge="1">
          <mxGeometry width="50" height="50" relative="1" as="geometry">
            <mxPoint x="520" y="400" as="sourcePoint" />
            <mxPoint x="570" y="350" as="targetPoint" />
            <Array as="points">
              <mxPoint x="480" y="430" />
            </Array>
          </mxGeometry>
        </mxCell>
        <mxCell id="2bLrS-VZrDyPFi-mQ5lX-22" value="Mux" style="shape=trapezoid;perimeter=trapezoidPerimeter;whiteSpace=wrap;html=1;fixedSize=1;direction=west;" parent="1" vertex="1">
          <mxGeometry x="420" y="180" width="80" height="20" as="geometry" />
        </mxCell>
        <mxCell id="2bLrS-VZrDyPFi-mQ5lX-24" value="" style="endArrow=classic;html=1;rounded=0;entryX=0.25;entryY=1;entryDx=0;entryDy=0;startArrow=oval;startFill=1;" parent="1" target="2bLrS-VZrDyPFi-mQ5lX-22" edge="1">
          <mxGeometry width="50" height="50" relative="1" as="geometry">
            <mxPoint x="480" y="140" as="sourcePoint" />
            <mxPoint x="590" y="340" as="targetPoint" />
          </mxGeometry>
        </mxCell>
        <mxCell id="2bLrS-VZrDyPFi-mQ5lX-25" value="" style="endArrow=classic;html=1;rounded=0;exitX=0.5;exitY=0;exitDx=0;exitDy=0;entryX=0;entryY=0.5;entryDx=0;entryDy=0;" parent="1" source="2bLrS-VZrDyPFi-mQ5lX-22" target="GmYDYf6V0mL1RIksBjV9-15" edge="1">
          <mxGeometry width="50" height="50" relative="1" as="geometry">
            <mxPoint x="540" y="390" as="sourcePoint" />
            <mxPoint x="590" y="340" as="targetPoint" />
            <Array as="points">
              <mxPoint x="460" y="220" />
            </Array>
          </mxGeometry>
        </mxCell>
        <mxCell id="2bLrS-VZrDyPFi-mQ5lX-26" value="" style="endArrow=classic;html=1;rounded=0;entryX=0.25;entryY=1;entryDx=0;entryDy=0;startArrow=oval;startFill=1;" parent="1" target="2bLrS-VZrDyPFi-mQ5lX-7" edge="1">
          <mxGeometry width="50" height="50" relative="1" as="geometry">
            <mxPoint x="510" y="140" as="sourcePoint" />
            <mxPoint x="590" y="340" as="targetPoint" />
            <Array as="points">
              <mxPoint x="510" y="200" />
              <mxPoint x="500" y="200" />
            </Array>
          </mxGeometry>
        </mxCell>
        <mxCell id="2bLrS-VZrDyPFi-mQ5lX-27" value="" style="endArrow=classic;html=1;rounded=0;exitX=1;exitY=0.5;exitDx=0;exitDy=0;entryX=0.75;entryY=1;entryDx=0;entryDy=0;" parent="1" source="GmYDYf6V0mL1RIksBjV9-16" target="2bLrS-VZrDyPFi-mQ5lX-7" edge="1">
          <mxGeometry width="50" height="50" relative="1" as="geometry">
            <mxPoint x="540" y="390" as="sourcePoint" />
            <mxPoint x="590" y="340" as="targetPoint" />
            <Array as="points">
              <mxPoint x="460" y="240" />
            </Array>
          </mxGeometry>
        </mxCell>
        <mxCell id="2bLrS-VZrDyPFi-mQ5lX-37" value="3V7" style="edgeLabel;html=1;align=center;verticalAlign=middle;resizable=0;points=[];" parent="2bLrS-VZrDyPFi-mQ5lX-27" vertex="1" connectable="0">
          <mxGeometry x="-0.8493" relative="1" as="geometry">
            <mxPoint y="1" as="offset" />
          </mxGeometry>
        </mxCell>
        <mxCell id="2bLrS-VZrDyPFi-mQ5lX-28" value="" style="endArrow=classic;html=1;rounded=0;entryX=0.75;entryY=1;entryDx=0;entryDy=0;startArrow=oval;startFill=1;" parent="1" target="2bLrS-VZrDyPFi-mQ5lX-22" edge="1">
          <mxGeometry width="50" height="50" relative="1" as="geometry">
            <mxPoint x="380" y="240" as="sourcePoint" />
            <mxPoint x="380" y="90" as="targetPoint" />
            <Array as="points">
              <mxPoint x="380" y="160" />
              <mxPoint x="440" y="160" />
            </Array>
          </mxGeometry>
        </mxCell>
        <mxCell id="2bLrS-VZrDyPFi-mQ5lX-29" value="" style="endArrow=classic;html=1;rounded=0;startArrow=oval;startFill=1;entryX=1;entryY=0.25;entryDx=0;entryDy=0;" parent="1" target="2bLrS-VZrDyPFi-mQ5lX-22" edge="1">
          <mxGeometry width="50" height="50" relative="1" as="geometry">
            <mxPoint x="360" y="193" as="sourcePoint" />
            <mxPoint x="420" y="210" as="targetPoint" />
          </mxGeometry>
        </mxCell>
      </root>
    </mxGraphModel>
  </diagram>
</mxfile>
